<?xml version="1.0" encoding="UTF-8"?>
<!DOCTYPE svg PUBLIC "-//W3C//DTD SVG 1.1//EN" "http://www.w3.org/Graphics/SVG/1.1/DTD/svg11.dtd">
<!-- Creator: CorelDRAW X8 -->
<svg xmlns="http://www.w3.org/2000/svg" xml:space="preserve" width="218.276mm" height="146.625mm" version="1.1" style="shape-rendering:geometricPrecision; text-rendering:geometricPrecision; image-rendering:optimizeQuality; fill-rule:evenodd; clip-rule:evenodd"
viewBox="0 0 21828 14662"
 xmlns:xlink="http://www.w3.org/1999/xlink">
 <defs>
  <style type="text/css">
   <![CDATA[
    .str0 {stroke:#373435;stroke-width:20}
    .fil0 {fill:none}
   ]]>
  </style>
 </defs>
 <g id="Capa_x0020_1">
  <metadata id="CorelCorpID_0Corel-Layer"/>
  <path class="fil0 str0" d="M19349 1881l230 2566c6,58 34,112 78,149 45,38 103,56 161,51l558 -50c58,-6 112,-34 149,-79 37,-44 55,-102 50,-160l-101 -1126c-5,-62 15,-123 57,-169 42,-45 101,-71 163,-71l59 0c114,0 210,86 220,200l842 10913c14,141 -33,280 -128,385 -96,104 -231,163 -372,162l-14828 -5c-424,-2 -800,-336 -939,-736 -140,-399 126,-1092 542,-1169l4134 -766c1299,-235 2407,-546 3700,-1004 636,-226 1225,-564 1745,-985l2162 1563 323 -445 -2060 -1495c1013,-986 1681,-2304 1774,-3661l-132 -4410c-11,-369 668,-633 1008,-489 339,144 572,464 605,831z"/>
  <path class="fil0 str0" d="M14002 3018l821 2467 521 -176 -821 -2467 247 -82c157,-53 335,21 388,178l1710 5140c52,157 -47,324 -204,375l-247 84 -8740 2908 -247 80c-157,54 -336,-21 -389,-178l-1710 -5139c-51,-158 47,-324 205,-376l247 -82 820 2467 523 -171 -821 -2467 7697 -2561z"/>
  <path class="fil0 str0" d="M512 10l14829 6c423,2 799,336 939,735 140,400 -126,1093 -542,1170l-4134 765c-1299,235 -2408,546 -3701,1005 -635,225 -1225,564 -1744,984l-2163 -1563 -323 445 2061 1496c-1014,986 -1681,2304 -1774,3661l132 4410c11,368 -669,633 -1008,488 -339,-144 -572,-463 -605,-830l-231 -2567c-5,-58 -33,-112 -78,-149 -45,-37 -102,-55 -160,-50l-558 50c-58,5 -112,33 -149,78 -38,45 -56,103 -51,161l102 1126c5,61 -16,123 -58,168 -41,46 -101,72 -163,71l-59 0c-114,1 -209,-86 -220,-199l-842 -10914c-13,-140 34,-280 129,-384 95,-105 230,-164 371,-163z"/>
 </g>
</svg>
